<svg xmlns="http://www.w3.org/2000/svg" xmlns:xlink="http://www.w3.org/1999/xlink" viewBox="0 0 937.93 532.01"><defs><style>.cls-1{fill:#161616;}.cls-2{fill:#070707;}.cls-3{fill:#232323;stroke:#0e0e0e;}.cls-11,.cls-3{stroke-miterlimit:10;}.cls-4{fill:#aaa9a3;}.cls-5{fill:#272727;}.cls-6{fill:#060606;}.cls-7{fill:#202020;}.cls-8{fill:#1c1c1c;}.cls-9{fill:#020202;}.cls-10{fill:#0c0c0c;}.cls-11{fill:none;stroke:#272727;}.cls-12{fill:#0a0a0a;}.cls-13{fill:#141414;}.cls-14{fill:#0e0e0e;}.cls-15{fill:#2a2a2a;}.cls-16{fill:#343434;}</style><symbol id="Thinkpad" data-name="Thinkpad" viewBox="0 0 937.93 532.01"><g id="Thinkpad_Body" data-name="Thinkpad Body"><rect class="cls-1" x="102.2" y="45.16" width="730.8" height="486.85" rx="12" ry="12"/><rect class="cls-2" x="710.92" y="377.5" width="29.3" height="28.67" rx="4.05" ry="4.05"/><circle class="cls-3" cx="812.98" cy="99.71" r="13.52"/><circle class="cls-4" cx="812.98" cy="99.71" r="1.58"/></g><g id="Keyboard_Frame" data-name="Keyboard Frame"><path class="cls-5" d="M773.6,339l17.82,12.12s4.12-5,4.2-6.1c.05-.7.16-2.1.15-2.8-.47-64.92-1.51-192.64-1.06-259,0-1.47-.47-4.58-1.43-5.7a8.87,8.87,0,0,0-5-2.14c-173.64-.43-482.59.24-632.9-1.24a10.94,10.94,0,0,0-4.28,1.43c-.86.53-2.46,1.3-2.46,1.3l7.52,17.62Z"/><path class="cls-6" d="M163.3,94.48,148.66,76.86a23.7,23.7,0,0,0-2.46,2.65,11,11,0,0,0-.71,4.28c-.31,66,.71,264.51.71,264.51l1.43,5.7,5,2.14,631.68-.71a25.35,25.35,0,0,0,4.28-1.43,22.67,22.67,0,0,0,2.85-2.85L780.73,339Z"/><path class="cls-7" d="M787.36,85.7a2.78,2.78,0,0,0-2.77-2.77H155a2.78,2.78,0,0,0-2.77,2.77V326.87a2.78,2.78,0,0,0,2.77,2.77H666.07v12.83a3.66,3.66,0,0,0,3.64,3.64h114a3.66,3.66,0,0,0,3.64-3.64v-14.9c0-.45,0-.45,0-.7Z"/></g><g id="Synaptic_Mouse" data-name="Synaptic Mouse"><rect class="cls-8" x="326.69" y="369.61" width="221.08" height="38.32"/><rect class="cls-9" x="326.69" y="330.61" width="221.08" height="38.32"/><rect class="cls-6" x="409.68" y="334.59" width="53.02" height="11.57"/><rect class="cls-10" x="400.67" y="345.79" width="71.33" height="21.21"/><path class="cls-7" d="M499,332.06H327.65v12.29h.14v22.81s62.72.53,93.21.18c.4,0,1-.71,1.23-1.05a5.23,5.23,0,0,0,.7-2.28c-.27-5.89-8.67-21.47-9.25-22.54v-3.62h47.19v3.62c-.58,1.07-9,16.65-9.25,22.54a5.23,5.23,0,0,0,.7,2.28c.22.34.82,1,1.23,1.05,30.49.35,93.21-.18,93.21-.18V344.35h.14V332.06Z"/><polygon class="cls-5" points="327.83 354.71 327.56 366.83 421 367.1 414.4 354.58 327.83 354.71"/><polygon class="cls-5" points="546.72 354.71 546.99 366.83 453.55 367.1 460.15 354.58 546.72 354.71"/><line class="cls-11" x1="425.25" y1="366.24" x2="449.59" y2="366.48"/><path class="cls-12" d="M327.29,386.77a3.37,3.37,0,0,0-.61,1.4V509.09a3.32,3.32,0,0,0,3.34,3.08H545a3.09,3.09,0,0,0,3.08-3.08V388.17a3,3,0,0,0-.35-1.4Z"/><path class="cls-13" d="M548.07,494.91v14.18a3.09,3.09,0,0,1-3.08,3.08H330a3.08,3.08,0,0,1-2.56-1.37v1.36a12,12,0,0,0,12,12h196.7a12,12,0,0,0,12-12V496.33A11.94,11.94,0,0,0,548.07,494.91Z"/></g><rect class="cls-14" x="157.13" y="87.72" width="185.02" height="25.17" rx="1.76" ry="1.76"/><rect class="cls-15" x="158.71" y="88.84" width="47.37" height="22.62" rx="1.07" ry="1.07"/><rect class="cls-14" x="335.78" y="285.66" width="287.2" height="37.45" rx="2.68" ry="2.68"/><rect class="cls-15" x="338.24" y="287.32" width="282.8" height="33.64" rx="3.18" ry="3.18"/><rect class="cls-15" x="207.92" y="88.84" width="31.8" height="22.62" rx="0.87" ry="0.87"/><rect class="cls-15" x="241.57" y="88.84" width="31.8" height="22.62" rx="0.87" ry="0.87"/><rect class="cls-15" x="275.81" y="88.84" width="31.8" height="22.62" rx="0.87" ry="0.87"/><rect class="cls-15" x="309.04" y="88.84" width="31.8" height="22.62" rx="0.87" ry="0.87"/><path class="cls-14" d="M630.35,112.9h148.2a1.6,1.6,0,0,0,1.59-1.59v-22a1.6,1.6,0,0,0-1.59-1.59H630.35a1.6,1.6,0,0,0-1.59,1.59v22A1.6,1.6,0,0,0,630.35,112.9Z"/><path class="cls-15" d="M732.26,111.46h45.23a1.07,1.07,0,0,0,1.07-1.07V89.91a1.07,1.07,0,0,0-1.07-1.07H732.26a1.07,1.07,0,0,0-1.07,1.07v20.48A1.07,1.07,0,0,0,732.26,111.46Z"/><path class="cls-14" d="M693,238.6h86a1.48,1.48,0,0,0,1.47-1.47V203.49A1.48,1.48,0,0,0,779,202H693a1.48,1.48,0,0,0-1.47,1.47v33.64A1.48,1.48,0,0,0,693,238.6Z"/><path class="cls-15" d="M694.89,236.51h81.55a1.73,1.73,0,0,0,1.72-1.72V205.36a1.73,1.73,0,0,0-1.72-1.72H694.89a1.73,1.73,0,0,0-1.72,1.72v29.43A1.73,1.73,0,0,0,694.89,236.51Z"/><path class="cls-15" d="M698.43,111.46h30.05a.88.88,0,0,0,.87-.87V89.71a.88.88,0,0,0-.87-.87H698.43a.88.88,0,0,0-.87.87v20.87A.88.88,0,0,0,698.43,111.46Z"/><path class="cls-15" d="M664.77,111.46h30.05a.88.88,0,0,0,.87-.87V89.71a.88.88,0,0,0-.87-.87H664.77a.88.88,0,0,0-.87.87v20.87A.88.88,0,0,0,664.77,111.46Z"/><path class="cls-15" d="M631.12,111.46h30.05a.88.88,0,0,0,.87-.87V89.71a.88.88,0,0,0-.87-.87H631.12a.88.88,0,0,0-.87.87v20.87A.88.88,0,0,0,631.12,111.46Z"/><rect class="cls-14" x="347.13" y="87.72" width="135.48" height="25.17" rx="1.51" ry="1.51"/><rect class="cls-15" x="348.38" y="88.84" width="31.8" height="22.62" rx="0.87" ry="0.87"/><rect class="cls-15" x="382.04" y="88.84" width="31.8" height="22.62" rx="0.87" ry="0.87"/><rect class="cls-15" x="416.27" y="88.84" width="31.8" height="22.62" rx="0.87" ry="0.87"/><rect class="cls-15" x="449.5" y="88.84" width="31.8" height="22.62" rx="0.87" ry="0.87"/><rect class="cls-14" x="488.8" y="87.72" width="135.48" height="25.17" rx="1.51" ry="1.51"/><rect class="cls-15" x="490.05" y="88.84" width="31.8" height="22.62" rx="0.87" ry="0.87"/><rect class="cls-15" x="523.71" y="88.84" width="31.8" height="22.62" rx="0.87" ry="0.87"/><rect class="cls-15" x="557.95" y="88.84" width="31.8" height="22.62" rx="0.87" ry="0.87"/><rect class="cls-15" x="591.17" y="88.84" width="31.8" height="22.62" rx="0.87" ry="0.87"/><rect class="cls-14" x="157.13" y="118.09" width="39.62" height="37.24" rx="5.48" ry="5.48"/><path class="cls-15" d="M187,153.07c-10.82.79-10.82.79-20.67,0-3.85-.53-6.94-3.12-6.94-6.94V127c0-3.82,3-7.36,6.94-6.94,4.2.45,16,.66,20.67,0A7,7,0,0,1,194,127v19.12C194,149.95,190.71,152.7,187,153.07Z"/><rect class="cls-14" x="198.93" y="118.09" width="39.62" height="37.24" rx="5.48" ry="5.48"/><path class="cls-15" d="M228.84,153.07c-10.82.79-10.82.79-20.67,0-3.85-.53-6.94-3.12-6.94-6.94V127c0-3.82,3-7.36,6.94-6.94,4.2.45,16,.66,20.67,0a7,7,0,0,1,6.94,6.94v19.12C235.78,149.95,232.51,152.7,228.84,153.07Z"/><rect class="cls-14" x="240.73" y="118.09" width="39.62" height="37.24" rx="5.48" ry="5.48"/><path class="cls-15" d="M270.64,153.07c-10.82.79-10.82.79-20.67,0-3.85-.53-6.94-3.12-6.94-6.94V127c0-3.82,3-7.36,6.94-6.94,4.2.45,16,.66,20.67,0a7,7,0,0,1,6.94,6.94v19.12C277.58,149.95,274.31,152.7,270.64,153.07Z"/><rect class="cls-14" x="282.53" y="118.09" width="39.62" height="37.24" rx="5.48" ry="5.48"/><path class="cls-15" d="M312.44,153.07c-10.82.79-10.82.79-20.67,0-3.85-.53-6.94-3.12-6.94-6.94V127c0-3.82,3-7.36,6.94-6.94,4.2.45,16,.66,20.67,0a7,7,0,0,1,6.94,6.94v19.12C319.38,149.95,316.11,152.7,312.44,153.07Z"/><rect class="cls-14" x="324.94" y="118.09" width="39.62" height="37.24" rx="5.48" ry="5.48"/><path class="cls-15" d="M354.85,153.07c-10.82.79-10.82.79-20.67,0-3.85-.53-6.94-3.12-6.94-6.94V127c0-3.82,3-7.36,6.94-6.94,4.2.45,16,.66,20.67,0a7,7,0,0,1,6.94,6.94v19.12C361.79,149.95,358.52,152.7,354.85,153.07Z"/><rect class="cls-14" x="366.74" y="118.09" width="39.62" height="37.24" rx="5.48" ry="5.48"/><path class="cls-15" d="M396.65,153.07c-10.82.79-10.82.79-20.67,0-3.85-.53-6.94-3.12-6.94-6.94V127c0-3.82,3-7.36,6.94-6.94,4.2.45,16,.66,20.67,0a7,7,0,0,1,6.94,6.94v19.12C403.59,149.95,400.32,152.7,396.65,153.07Z"/><rect class="cls-14" x="408.54" y="118.09" width="39.62" height="37.24" rx="5.48" ry="5.48"/><path class="cls-15" d="M438.45,153.07c-10.82.79-10.82.79-20.67,0-3.85-.53-6.94-3.12-6.94-6.94V127c0-3.82,3-7.36,6.94-6.94,4.2.45,16,.66,20.67,0a7,7,0,0,1,6.94,6.94v19.12C445.39,149.95,442.12,152.7,438.45,153.07Z"/><rect class="cls-14" x="450.34" y="118.09" width="39.62" height="37.24" rx="5.48" ry="5.48"/><path class="cls-15" d="M480.25,153.07c-10.82.79-10.82.79-20.67,0-3.85-.53-6.94-3.12-6.94-6.94V127c0-3.82,3-7.36,6.94-6.94,4.2.45,16,.66,20.67,0a7,7,0,0,1,6.94,6.94v19.12C487.19,149.95,483.92,152.7,480.25,153.07Z"/><rect class="cls-14" x="492.16" y="118.17" width="39.62" height="37.24" rx="5.48" ry="5.48"/><path class="cls-15" d="M522.08,153.15c-10.82.79-10.82.79-20.67,0-3.85-.53-6.94-3.12-6.94-6.94V127.09c0-3.82,3-7.36,6.94-6.94,4.2.45,16,.66,20.67,0a7,7,0,0,1,6.94,6.94v19.12C529,150,525.75,152.78,522.08,153.15Z"/><rect class="cls-14" x="533.96" y="118.17" width="39.62" height="37.24" rx="5.48" ry="5.48"/><path class="cls-15" d="M563.88,153.15c-10.82.79-10.82.79-20.67,0-3.85-.53-6.94-3.12-6.94-6.94V127.09c0-3.82,3-7.36,6.94-6.94,4.2.45,16,.66,20.67,0a7,7,0,0,1,6.94,6.94v19.12C570.82,150,567.55,152.78,563.88,153.15Z"/><rect class="cls-14" x="575.76" y="118.17" width="39.62" height="37.24" rx="5.48" ry="5.48"/><path class="cls-15" d="M605.68,153.15c-10.82.79-10.82.79-20.67,0-3.85-.53-6.94-3.12-6.94-6.94V127.09c0-3.82,3-7.36,6.94-6.94,4.2.45,16,.66,20.67,0a7,7,0,0,1,6.94,6.94v19.12C612.62,150,609.35,152.78,605.68,153.15Z"/><rect class="cls-14" x="617.56" y="118.17" width="39.62" height="37.24" rx="5.48" ry="5.48"/><path class="cls-15" d="M647.48,153.15c-10.82.79-10.82.79-20.67,0-3.85-.53-6.94-3.12-6.94-6.94V127.09c0-3.82,3-7.36,6.94-6.94,4.2.45,16,.66,20.67,0a7,7,0,0,1,6.94,6.94v19.12C654.42,150,651.15,152.78,647.48,153.15Z"/><rect class="cls-14" x="660.24" y="118.17" width="39.62" height="37.24" rx="5.48" ry="5.48"/><path class="cls-15" d="M690.15,153.15c-10.82.79-10.82.79-20.67,0-3.85-.53-6.94-3.12-6.94-6.94V127.09c0-3.82,3-7.36,6.94-6.94,4.2.45,16,.66,20.67,0a7,7,0,0,1,6.94,6.94v19.12C697.09,150,693.82,152.78,690.15,153.15Z"/><rect class="cls-14" x="680.81" y="159.02" width="39.62" height="37.24" rx="5.48" ry="5.48"/><path class="cls-15" d="M710.72,194c-10.82.79-10.82.79-20.67,0-3.85-.53-6.94-3.12-6.94-6.94V167.94c0-3.82,3-7.36,6.94-6.94,4.2.45,16,.66,20.67,0a7,7,0,0,1,6.94,6.94v19.12C717.66,190.87,714.39,193.63,710.72,194Z"/><rect class="cls-14" x="638.13" y="159.16" width="39.62" height="37.24" rx="5.48" ry="5.48"/><path class="cls-15" d="M668,194.13c-10.82.79-10.82.79-20.67,0-3.85-.53-6.94-3.12-6.94-6.94V168.08c0-3.82,3-7.36,6.94-6.94,4.2.45,16,.66,20.67,0a7,7,0,0,1,6.94,6.94v19.12C675,191,671.72,193.77,668,194.13Z"/><rect class="cls-14" x="595.86" y="159.02" width="39.62" height="37.24" rx="5.48" ry="5.48"/><path class="cls-15" d="M625.77,194c-10.82.79-10.82.79-20.67,0-3.85-.53-6.94-3.12-6.94-6.94V167.94c0-3.82,3-7.36,6.94-6.94,4.2.45,16,.66,20.67,0a7,7,0,0,1,6.94,6.94v19.12C632.71,190.87,629.44,193.63,625.77,194Z"/><rect class="cls-14" x="553.18" y="159.16" width="39.62" height="37.24" rx="5.48" ry="5.48"/><path class="cls-15" d="M583.1,194.13c-10.82.79-10.82.79-20.67,0-3.85-.53-6.94-3.12-6.94-6.94V168.08c0-3.82,3-7.36,6.94-6.94,4.2.45,16,.66,20.67,0a7,7,0,0,1,6.94,6.94v19.12C590,191,586.77,193.77,583.1,194.13Z"/><rect class="cls-14" x="510.44" y="159.02" width="39.62" height="37.24" rx="5.48" ry="5.48"/><path class="cls-15" d="M540.36,194c-10.82.79-10.82.79-20.67,0-3.85-.53-6.94-3.12-6.94-6.94V167.94c0-3.82,3-7.36,6.94-6.94,4.2.45,16,.66,20.67,0a7,7,0,0,1,6.94,6.94v19.12C547.3,190.87,544,193.63,540.36,194Z"/><rect class="cls-14" x="467.77" y="159.16" width="39.62" height="37.24" rx="5.48" ry="5.48"/><path class="cls-15" d="M497.68,194.13c-10.82.79-10.82.79-20.67,0-3.85-.53-6.94-3.12-6.94-6.94V168.08c0-3.82,3-7.36,6.94-6.94,4.2.45,16,.66,20.67,0a7,7,0,0,1,6.94,6.94v19.12C504.62,191,501.35,193.77,497.68,194.13Z"/><rect class="cls-14" x="425.39" y="159.02" width="39.62" height="37.24" rx="5.48" ry="5.48"/><path class="cls-15" d="M455.31,194c-10.82.79-10.82.79-20.67,0-3.85-.53-6.94-3.12-6.94-6.94V167.94c0-3.82,3-7.36,6.94-6.94,4.2.45,16,.66,20.67,0a7,7,0,0,1,6.94,6.94v19.12C462.25,190.87,459,193.63,455.31,194Z"/><rect class="cls-14" x="382.72" y="159.16" width="39.62" height="37.24" rx="5.48" ry="5.48"/><path class="cls-15" d="M412.64,194.13c-10.82.79-10.82.79-20.67,0-3.85-.53-6.94-3.12-6.94-6.94V168.08c0-3.82,3-7.36,6.94-6.94,4.2.45,16,.66,20.67,0a7,7,0,0,1,6.94,6.94v19.12C419.58,191,416.3,193.77,412.64,194.13Z"/><rect class="cls-14" x="340.83" y="159.02" width="39.62" height="37.24" rx="5.48" ry="5.48"/><path class="cls-15" d="M370.74,194c-10.82.79-10.82.79-20.67,0-3.85-.53-6.94-3.12-6.94-6.94V167.94c0-3.82,3-7.36,6.94-6.94,4.2.45,16,.66,20.67,0a7,7,0,0,1,6.94,6.94v19.12C377.68,190.87,374.41,193.63,370.74,194Z"/><rect class="cls-14" x="298.16" y="159.16" width="39.62" height="37.24" rx="5.48" ry="5.48"/><path class="cls-15" d="M328.07,194.13c-10.82.79-10.82.79-20.67,0-3.85-.53-6.94-3.12-6.94-6.94V168.08c0-3.82,3-7.36,6.94-6.94,4.2.45,16,.66,20.67,0a7,7,0,0,1,6.94,6.94v19.12C335,191,331.74,193.77,328.07,194.13Z"/><rect class="cls-14" x="255.78" y="159.02" width="39.62" height="37.24" rx="5.48" ry="5.48"/><path class="cls-15" d="M285.7,194c-10.82.79-10.82.79-20.67,0-3.85-.53-6.94-3.12-6.94-6.94V167.94c0-3.82,3-7.36,6.94-6.94,4.2.45,16,.66,20.67,0a7,7,0,0,1,6.94,6.94v19.12C292.63,190.87,289.36,193.63,285.7,194Z"/><rect class="cls-14" x="213.11" y="159.16" width="39.62" height="37.24" rx="5.48" ry="5.48"/><path class="cls-15" d="M243,194.13c-10.82.79-10.82.79-20.67,0-3.85-.53-6.94-3.12-6.94-6.94V168.08c0-3.82,3-7.36,6.94-6.94,4.2.45,16,.66,20.67,0a7,7,0,0,1,6.94,6.94v19.12C250,191,246.69,193.77,243,194.13Z"/><rect class="cls-14" x="646.13" y="201.16" width="39.62" height="37.24" rx="5.48" ry="5.48"/><path class="cls-15" d="M676,236.13c-10.82.79-10.82.79-20.67,0-3.85-.53-6.94-3.12-6.94-6.94V210.08c0-3.82,3-7.36,6.94-6.94,4.2.45,16,.66,20.67,0a7,7,0,0,1,6.94,6.94v19.12C683,233,679.72,235.77,676,236.13Z"/><rect class="cls-14" x="603.86" y="201.02" width="39.62" height="37.24" rx="5.48" ry="5.48"/><path class="cls-15" d="M633.77,236c-10.82.79-10.82.79-20.67,0-3.85-.53-6.94-3.12-6.94-6.94V209.94c0-3.82,3-7.36,6.94-6.94,4.2.45,16,.66,20.67,0a7,7,0,0,1,6.94,6.94v19.12C640.71,232.87,637.44,235.63,633.77,236Z"/><rect class="cls-14" x="561.18" y="201.16" width="39.62" height="37.24" rx="5.48" ry="5.48"/><path class="cls-15" d="M591.1,236.13c-10.82.79-10.82.79-20.67,0-3.85-.53-6.94-3.12-6.94-6.94V210.08c0-3.82,3-7.36,6.94-6.94,4.2.45,16,.66,20.67,0a7,7,0,0,1,6.94,6.94v19.12C598,233,594.77,235.77,591.1,236.13Z"/><rect class="cls-14" x="518.44" y="201.02" width="39.62" height="37.24" rx="5.48" ry="5.48"/><path class="cls-15" d="M548.36,236c-10.82.79-10.82.79-20.67,0-3.85-.53-6.94-3.12-6.94-6.94V209.94c0-3.82,3-7.36,6.94-6.94,4.2.45,16,.66,20.67,0a7,7,0,0,1,6.94,6.94v19.12C555.3,232.87,552,235.63,548.36,236Z"/><rect class="cls-14" x="475.77" y="201.16" width="39.62" height="37.24" rx="5.48" ry="5.48"/><path class="cls-15" d="M505.68,236.13c-10.82.79-10.82.79-20.67,0-3.85-.53-6.94-3.12-6.94-6.94V210.08c0-3.82,3-7.36,6.94-6.94,4.2.45,16,.66,20.67,0a7,7,0,0,1,6.94,6.94v19.12C512.62,233,509.35,235.77,505.68,236.13Z"/><rect class="cls-14" x="433.39" y="201.02" width="39.62" height="37.24" rx="5.48" ry="5.48"/><path class="cls-15" d="M463.31,236c-10.82.79-10.82.79-20.67,0-3.85-.53-6.94-3.12-6.94-6.94V209.94c0-3.82,3-7.36,6.94-6.94,4.2.45,16,.66,20.67,0a7,7,0,0,1,6.94,6.94v19.12C470.25,232.87,467,235.63,463.31,236Z"/><rect class="cls-14" x="390.72" y="201.16" width="39.62" height="37.24" rx="5.48" ry="5.48"/><path class="cls-15" d="M420.64,236.13c-10.82.79-10.82.79-20.67,0-3.85-.53-6.94-3.12-6.94-6.94V210.08c0-3.82,3-7.36,6.94-6.94,4.2.45,16,.66,20.67,0a7,7,0,0,1,6.94,6.94v19.12C427.58,233,424.3,235.77,420.64,236.13Z"/><rect class="cls-14" x="348.83" y="201.02" width="39.62" height="37.24" rx="5.48" ry="5.48"/><path class="cls-15" d="M378.74,236c-10.82.79-10.82.79-20.67,0-3.85-.53-6.94-3.12-6.94-6.94V209.94c0-3.82,3-7.36,6.94-6.94,4.2.45,16,.66,20.67,0a7,7,0,0,1,6.94,6.94v19.12C385.68,232.87,382.41,235.63,378.74,236Z"/><rect class="cls-14" x="306.16" y="201.16" width="39.62" height="37.24" rx="5.48" ry="5.48"/><path class="cls-15" d="M336.07,236.13c-10.82.79-10.82.79-20.67,0-3.85-.53-6.94-3.12-6.94-6.94V210.08c0-3.82,3-7.36,6.94-6.94,4.2.45,16,.66,20.67,0a7,7,0,0,1,6.94,6.94v19.12C343,233,339.74,235.77,336.07,236.13Z"/><rect class="cls-14" x="263.78" y="201.02" width="39.62" height="37.24" rx="5.48" ry="5.48"/><path class="cls-15" d="M293.7,236c-10.82.79-10.82.79-20.67,0-3.85-.53-6.94-3.12-6.94-6.94V209.94c0-3.82,3-7.36,6.94-6.94,4.2.45,16,.66,20.67,0a7,7,0,0,1,6.94,6.94v19.12C300.63,232.87,297.36,235.63,293.7,236Z"/><rect class="cls-14" x="221.11" y="201.16" width="39.62" height="37.24" rx="5.48" ry="5.48"/><path class="cls-15" d="M251,236.13c-10.82.79-10.82.79-20.67,0-3.85-.53-6.94-3.12-6.94-6.94V210.08c0-3.82,3-7.36,6.94-6.94,4.2.45,16,.66,20.67,0a7,7,0,0,1,6.94,6.94v19.12C258,233,254.69,235.77,251,236.13Z"/><rect class="cls-14" x="626.86" y="243.02" width="39.62" height="37.24" rx="5.48" ry="5.48"/><path class="cls-15" d="M656.77,278c-10.82.79-10.82.79-20.67,0-3.85-.53-6.94-3.12-6.94-6.94V251.94c0-3.82,3-7.36,6.94-6.94,4.2.45,16,.66,20.67,0a7,7,0,0,1,6.94,6.94v19.12C663.71,274.87,660.44,277.63,656.77,278Z"/><rect class="cls-14" x="584.18" y="243.16" width="39.62" height="37.24" rx="5.48" ry="5.48"/><path class="cls-15" d="M614.1,278.13c-10.82.79-10.82.79-20.67,0-3.85-.53-6.94-3.12-6.94-6.94V252.08c0-3.82,3-7.36,6.94-6.94,4.2.45,16,.66,20.67,0a7,7,0,0,1,6.94,6.94v19.12C621,275,617.77,277.77,614.1,278.13Z"/><rect class="cls-14" x="541.44" y="243.02" width="39.62" height="37.24" rx="5.48" ry="5.48"/><path class="cls-15" d="M571.36,278c-10.82.79-10.82.79-20.67,0-3.85-.53-6.94-3.12-6.94-6.94V251.94c0-3.82,3-7.36,6.94-6.94,4.2.45,16,.66,20.67,0a7,7,0,0,1,6.94,6.94v19.12C578.3,274.87,575,277.63,571.36,278Z"/><rect class="cls-14" x="498.77" y="243.16" width="39.62" height="37.24" rx="5.48" ry="5.48"/><path class="cls-15" d="M528.68,278.13c-10.82.79-10.82.79-20.67,0-3.85-.53-6.94-3.12-6.94-6.94V252.08c0-3.82,3-7.36,6.94-6.94,4.2.45,16,.66,20.67,0a7,7,0,0,1,6.94,6.94v19.12C535.62,275,532.35,277.77,528.68,278.13Z"/><rect class="cls-14" x="456.39" y="243.02" width="39.62" height="37.24" rx="5.48" ry="5.48"/><path class="cls-15" d="M486.31,278c-10.82.79-10.82.79-20.67,0-3.85-.53-6.94-3.12-6.94-6.94V251.94c0-3.82,3-7.36,6.94-6.94,4.2.45,16,.66,20.67,0a7,7,0,0,1,6.94,6.94v19.12C493.25,274.87,490,277.63,486.31,278Z"/><rect class="cls-14" x="414.72" y="243.16" width="39.62" height="37.24" rx="5.48" ry="5.48"/><path class="cls-15" d="M444.64,278.13c-10.82.79-10.82.79-20.67,0-3.85-.53-6.94-3.12-6.94-6.94V252.08c0-3.82,3-7.36,6.94-6.94,4.2.45,16,.66,20.67,0a7,7,0,0,1,6.94,6.94v19.12C451.58,275,448.3,277.77,444.64,278.13Z"/><rect class="cls-14" x="372.83" y="243.02" width="39.62" height="37.24" rx="5.48" ry="5.48"/><path class="cls-15" d="M402.74,278c-10.82.79-10.82.79-20.67,0-3.85-.53-6.94-3.12-6.94-6.94V251.94c0-3.82,3-7.36,6.94-6.94,4.2.45,16,.66,20.67,0a7,7,0,0,1,6.94,6.94v19.12C409.68,274.87,406.41,277.63,402.74,278Z"/><rect class="cls-14" x="330.16" y="243.16" width="39.62" height="37.24" rx="5.48" ry="5.48"/><path class="cls-15" d="M360.07,278.13c-10.82.79-10.82.79-20.67,0-3.85-.53-6.94-3.12-6.94-6.94V252.08c0-3.82,3-7.36,6.94-6.94,4.2.45,16,.66,20.67,0a7,7,0,0,1,6.94,6.94v19.12C367,275,363.74,277.77,360.07,278.13Z"/><rect class="cls-14" x="287.78" y="243.02" width="39.62" height="37.24" rx="5.48" ry="5.48"/><path class="cls-15" d="M317.7,278c-10.82.79-10.82.79-20.67,0-3.85-.53-6.94-3.12-6.94-6.94V251.94c0-3.82,3-7.36,6.94-6.94,4.2.45,16,.66,20.67,0a7,7,0,0,1,6.94,6.94v19.12C324.63,274.87,321.36,277.63,317.7,278Z"/><rect class="cls-14" x="245.04" y="243.02" width="39.62" height="37.24" rx="5.48" ry="5.48"/><path class="cls-15" d="M275,278c-10.82.79-10.82.79-20.67,0-3.85-.53-6.94-3.12-6.94-6.94V251.94c0-3.82,3-7.36,6.94-6.94,4.2.45,16,.66,20.67,0a7,7,0,0,1,6.94,6.94v19.12C281.89,274.87,278.62,277.63,275,278Z"/><rect class="cls-14" x="156.05" y="285.76" width="39.62" height="37.24" rx="5.48" ry="5.48"/><path class="cls-15" d="M186,320.73c-10.82.79-10.82.79-20.67,0-3.85-.53-6.94-3.12-6.94-6.94V294.68c0-3.82,3-7.36,6.94-6.94,4.2.45,16,.66,20.67,0a7,7,0,0,1,6.94,6.94V313.8C192.91,317.61,189.63,320.37,186,320.73Z"/><rect class="cls-14" x="250.46" y="285.76" width="39.62" height="37.24" rx="5.48" ry="5.48"/><path class="cls-15" d="M280.38,320.73c-10.82.79-10.82.79-20.67,0-3.85-.53-6.94-3.12-6.94-6.94V294.68c0-3.82,3-7.36,6.94-6.94,4.2.45,16,.66,20.67,0a7,7,0,0,1,6.94,6.94V313.8C287.32,317.61,284,320.37,280.38,320.73Z"/><rect class="cls-14" x="292.84" y="285.76" width="39.62" height="37.24" rx="5.48" ry="5.48"/><path class="cls-15" d="M322.75,320.73c-10.82.79-10.82.79-20.67,0-3.85-.53-6.94-3.12-6.94-6.94V294.68c0-3.82,3-7.36,6.94-6.94,4.2.45,16,.66,20.67,0a7,7,0,0,1,6.94,6.94V313.8C329.69,317.61,326.42,320.37,322.75,320.73Z"/><rect class="cls-14" x="626.86" y="285.76" width="39.62" height="37.24" rx="5.48" ry="5.48"/><path class="cls-15" d="M656.77,320.73c-10.82.79-10.82.79-20.67,0-3.85-.53-6.94-3.12-6.94-6.94V294.68c0-3.82,3-7.36,6.94-6.94,4.2.45,16,.66,20.67,0a7,7,0,0,1,6.94,6.94V313.8C663.71,317.61,660.44,320.37,656.77,320.73Z"/><rect class="cls-14" x="157.13" y="159.29" width="54.18" height="37.24" rx="6.41" ry="6.41"/><path class="cls-15" d="M205.45,194.05c-21.14,1.45-21.14,1.45-42.27,0a3.32,3.32,0,0,1-3.31-3.31V165.37a3.32,3.32,0,0,1,3.31-3.31h42.27a3.32,3.32,0,0,1,3.31,3.31v25.38A3.54,3.54,0,0,1,205.45,194.05Z"/><rect class="cls-14" x="198.44" y="285.76" width="50.12" height="37.24" rx="6.16" ry="6.16"/><path class="cls-15" d="M243.15,320.52C223.6,322,223.6,322,204,320.52a3.2,3.2,0,0,1-3.06-3.31V291.83a3.2,3.2,0,0,1,3.06-3.31h39.11a3.2,3.2,0,0,1,3.06,3.31v25.38A3.41,3.41,0,0,1,243.15,320.52Z"/><rect class="cls-14" x="157.13" y="202.15" width="61.61" height="37.24" rx="6.83" ry="6.83"/><path class="cls-15" d="M212.08,236.91c-24,1.45-24,1.45-48.07,0a3.56,3.56,0,0,1-3.76-3.31V208.23a3.56,3.56,0,0,1,3.76-3.31h48.07a3.56,3.56,0,0,1,3.76,3.31v25.38C215.84,235.42,213.79,236.91,212.08,236.91Z"/><rect class="cls-14" x="158.36" y="244.15" width="83.56" height="37.24" rx="7.96" ry="7.96"/><path class="cls-15" d="M232.89,278.91c-32.6,1.45-32.6,1.45-65.19,0-2.8,0-5.1-1.49-5.1-3.31V250.23c0-1.82,2.29-3.31,5.1-3.31h65.19c2.8,0,5.1,1.49,5.1,3.31v25.38C238,277.42,235.21,278.91,232.89,278.91Z"/><rect class="cls-14" x="672.61" y="244.15" width="107.43" height="37.24" rx="9.02" ry="9.02"/><path class="cls-15" d="M768.88,277.69c-42.87,1.37-42.87,1.37-85.73,0-3.69,0-6.7-1.41-6.7-3.13v-24c0-1.72,3-3.13,6.7-3.13h85.73c3.69,0,6.7,1.41,6.7,3.13v24C775.59,276.28,771.94,277.69,768.88,277.69Z"/><rect class="cls-14" x="723.98" y="159.29" width="54.18" height="37.24" rx="6.41" ry="6.41"/><path class="cls-15" d="M772.3,194.05c-21.14,1.45-21.14,1.45-42.27,0a3.32,3.32,0,0,1-3.31-3.31V165.37a3.32,3.32,0,0,1,3.31-3.31H772.3a3.32,3.32,0,0,1,3.31,3.31v25.38A3.54,3.54,0,0,1,772.3,194.05Z"/><rect class="cls-14" x="702.14" y="118.17" width="79.65" height="37.24" rx="7.77" ry="7.77"/><path class="cls-15" d="M763.89,153.15c-22.88.79-22.88.79-43.7,0-8.14-.53-14.67-3.12-14.67-6.94V127.09c0-3.82,6.31-7.36,14.67-6.94,8.88.45,33.87.66,43.7,0,8.07,0,14.67,3.12,14.67,6.94v19.12C778.56,150,771.64,152.78,763.89,153.15Z"/><rect class="cls-14" x="670.81" y="284.34" width="30.95" height="53.47" rx="1.53" ry="1.53"/><path class="cls-15" d="M693.06,312c-8.46.75-7.53.24-15.23-.5-3-.51-5.22,2.82-5.22-.81V292.49c0-3.63,2.33-7,5.42-6.6,3.28.43,12.52.63,16.15,0,3,0,5.42,3,5.42,6.6v18.19C699.61,314.32,695.92,311.65,693.06,312Z"/><path class="cls-16" d="M672.61,312.89c0,.3.52.54,1.16.54h24.67c.64,0,1.16-.24,1.16-.54V311h-27Z"/><path class="cls-16" d="M672.61,314.73v20.08c0,1.06.58,1.93,1.28,1.93h24.42c.71,0,1.28-.87,1.28-1.93V314.73Z"/><rect class="cls-15" x="672.61" y="314.73" width="26.99" height="20.08"/><rect class="cls-14" x="709.01" y="284.34" width="30.95" height="53.47" rx="1.53" ry="1.53"/><path class="cls-15" d="M731.26,312c-8.46.75-7.53.24-15.23-.5-3-.51-5.22,2.82-5.22-.81V292.49c0-3.63,2.33-7,5.42-6.6,3.28.43,12.52.63,16.15,0,3,0,5.42,3,5.42,6.6v18.19C737.8,314.32,734.12,311.65,731.26,312Z"/><path class="cls-16" d="M710.81,312.89c0,.3.52.54,1.16.54h24.67c.64,0,1.16-.24,1.16-.54V311h-27Z"/><path class="cls-16" d="M710.81,314.73v20.08c0,1.06.58,1.93,1.28,1.93h24.42c.71,0,1.28-.87,1.28-1.93V314.73Z"/><rect class="cls-15" x="710.81" y="314.73" width="26.99" height="20.08"/><rect class="cls-14" x="746.87" y="284.34" width="30.95" height="53.47" rx="1.53" ry="1.53"/><path class="cls-15" d="M769.12,312c-8.46.75-7.53.24-15.23-.5-3-.51-5.22,2.82-5.22-.81V292.49c0-3.63,2.33-7,5.42-6.6,3.28.43,12.52.63,16.15,0,3,0,5.42,3,5.42,6.6v18.19C775.66,314.32,772,311.65,769.12,312Z"/><path class="cls-16" d="M748.67,312.89c0,.3.52.54,1.16.54H774.5c.64,0,1.16-.24,1.16-.54V311h-27Z"/><path class="cls-16" d="M748.67,314.73v20.08c0,1.06.58,1.93,1.28,1.93h24.42c.71,0,1.28-.87,1.28-1.93V314.73Z"/><rect class="cls-15" x="748.67" y="314.73" width="26.99" height="20.08"/><g id="Laptop_Lid" data-name="Laptop Lid"><polygon class="cls-7" points="111.43 37.8 104.24 54.91 834.32 55.02 827.54 38.53 111.43 37.8"/><polygon class="cls-12" points="111.2 42.51 101.36 28.89 835.1 28.89 828.29 43 111.2 42.51"/><path class="cls-4" d="M173.48,27.5a11.06,11.06,0,0,0-1.69,1.31A10.4,10.4,0,0,0,170.53,32a23.49,23.49,0,0,0-.21,4.83,89.83,89.83,0,0,0,1.89,10.91c.42,1.81,2.1,7.13,2.1,7.13l67.57.42s-.22-9.29-.42-12.38c-.18-2.73-.12-8.33-1-10.91-.48-1.31-3.15-4.46-3.15-4.46S173.27,27.71,173.48,27.5Z"/><path class="cls-4" d="M764.67,27.5a11.06,11.06,0,0,1,1.69,1.31A10.4,10.4,0,0,1,767.63,32a23.49,23.49,0,0,1,.21,4.83,89.83,89.83,0,0,1-1.89,10.91c-.42,1.81-2.1,7.13-2.1,7.13l-67.57.42s.22-9.29.42-12.38c.18-2.73.12-8.33,1-10.91.48-1.31,3.15-4.46,3.15-4.46S764.88,27.71,764.67,27.5Z"/><path class="cls-7" d="M928.43,0H9.5C4.81,0,0,3.81,0,8.5S-.19,31,4.5,31H933.43c4.69,0,4.5-17.81,4.5-22.5S933.13,0,928.43,0Z"/></g></symbol></defs><title>Asset 1</title><g id="Layer_2" data-name="Layer 2"><g id="Layer_1-2" data-name="Layer 1"><use width="937.93" height="532.01" xlink:href="#Thinkpad"/></g></g></svg>